<svg width="33" height="27" viewBox="0 0 33 27" fill="none" xmlns="http://www.w3.org/2000/svg">
<path d="M32.2069 3.9084C31.329 5.19453 30.2518 6.2909 28.9755 7.1975C28.9881 7.44064 28.9944 7.71546 28.9944 8.02195C28.9944 9.72485 28.7423 11.4298 28.2381 13.1369C27.734 14.8439 26.9638 16.4778 25.9277 18.0387C24.8915 19.5995 23.6573 20.9823 22.225 22.187C20.7927 23.3917 19.071 24.3522 17.0599 25.0687C15.0488 25.7851 12.8935 26.1433 10.5939 26.1433C7.00493 26.1433 3.69988 25.1891 0.678711 23.2807C1.21493 23.3395 1.72921 23.3689 2.22156 23.3689C5.21981 23.3689 7.89774 22.4594 10.2553 20.6404C8.85737 20.6151 7.6054 20.1913 6.4994 19.3689C5.39341 18.5465 4.63229 17.4957 4.21605 16.2164C4.62748 16.2936 5.03354 16.3322 5.43425 16.3322C6.01104 16.3322 6.57859 16.2581 7.13691 16.1099C5.64503 15.8156 4.40739 15.0839 3.42398 13.9145C2.44061 12.7452 1.94893 11.3956 1.94893 9.86574V9.78689C2.86465 10.2862 3.84141 10.5518 4.87921 10.5837C3.99544 10.0035 3.29473 9.2468 2.77711 8.31372C2.25944 7.38064 2.00061 6.37088 2.00061 5.28444C2.00061 4.13862 2.29216 3.07164 2.87525 2.0835C4.49764 4.04425 6.46351 5.61134 8.77285 6.78478C11.0822 7.95823 13.5597 8.60993 16.2054 8.73988C16.0926 8.27674 16.036 7.79344 16.0358 7.28996C16.0358 5.53202 16.6675 4.03099 17.9309 2.78688C19.1943 1.54277 20.7185 0.920715 22.5035 0.920715C24.3723 0.920715 25.9464 1.59089 27.2259 2.93123C28.6877 2.64606 30.0565 2.13027 31.3321 1.38385C30.8407 2.90713 29.8936 4.08223 28.4911 4.90916C29.7802 4.75829 31.0188 4.42471 32.2069 3.9084Z" fill="#1D9BF0"/>
<path d="M25.9013 6.77595C25.9013 8.51721 24.4897 9.92878 22.7485 9.92878C21.0072 9.92878 19.5956 8.51721 19.5956 6.77595C19.5956 5.0347 21.0072 3.62313 22.7485 3.62313C24.4897 3.62313 25.9013 5.0347 25.9013 6.77595Z" fill="white"/>
<path d="M24.0997 6.77595C24.0997 7.52221 23.4947 8.12716 22.7485 8.12716C22.0022 8.12716 21.3973 7.52221 21.3973 6.77595C21.3973 6.0297 22.0022 5.42475 22.7485 5.42475C23.4947 5.42475 24.0997 6.0297 24.0997 6.77595Z" fill="#1D9BF0"/>
</svg>
