<svg width="30" height="24" viewBox="0 0 30 24" fill="none" xmlns="http://www.w3.org/2000/svg">
<path d="M30 2.84287C29.1646 4.06666 28.1397 5.10988 26.9252 5.97254C26.9372 6.2039 26.9432 6.46539 26.9432 6.75703C26.9432 8.37739 26.7033 9.99972 26.2236 11.624C25.7438 13.2483 25.011 14.803 24.0251 16.2882C23.0392 17.7734 21.8648 19.0892 20.5019 20.2355C19.139 21.3818 17.5008 22.2958 15.5872 22.9775C13.6736 23.6592 11.6227 24 9.43454 24C6.01958 24 2.87473 23.0921 0 21.2762C0.51023 21.3321 0.999584 21.3601 1.46806 21.3601C4.32099 21.3601 6.86911 20.4946 9.11243 18.7638C7.78223 18.7398 6.59094 18.3365 5.53856 17.554C4.48617 16.7715 3.76195 15.7716 3.36588 14.5543C3.75736 14.6277 4.14375 14.6644 4.52503 14.6644C5.07386 14.6644 5.61391 14.5939 6.14516 14.453C4.72559 14.173 3.54794 13.4766 2.61221 12.364C1.6765 11.2514 1.20865 9.96719 1.20865 8.51145V8.43642C2.07999 8.91156 3.0094 9.16429 3.9969 9.19463C3.15596 8.6425 2.48922 7.92251 1.99668 7.03466C1.50411 6.1468 1.25783 5.18599 1.25783 4.15221C1.25783 3.06193 1.53524 2.04666 2.09007 1.10642C3.63382 2.97213 5.5044 4.46327 7.7018 5.57983C9.89924 6.6964 12.2567 7.31651 14.7741 7.44016C14.6667 6.99947 14.6129 6.53959 14.6127 6.06052C14.6127 4.38779 15.2138 2.95952 16.4159 1.77571C17.6181 0.591903 19.0684 0 20.7669 0C22.5451 0 24.043 0.637687 25.2604 1.91306C26.6514 1.64172 27.9538 1.15093 29.1676 0.440688C28.7 1.89013 27.7988 3.00827 26.4642 3.79512C27.6909 3.65156 28.8694 3.33415 30 2.84287H30Z" fill="#1D9BF0"/>
</svg>
